# xmcd CD database file
#
# Track frame offsets:
#	150
#	8206
#	20325
#	30693
#	45519
#	58600
#	73979
#	84446
#	106779
#	121851
#	141202
#	152037
#
# Disc length: 2147 seconds
#
# Revision: 1
# Processed by: cddbd v1.5.1PL0 Copyright (c) Steve Scherf et al.
# Submitted via: CDex 1.51
#
DISCID=9408610c
DTITLE=Various Artist - Jazz Desire - Summer Loving
DYEAR=2004
DGENRE=Jazz
TTITLE0=I Only Have Eyes For You- Billie Holiday
TTITLE1=I Feel So Smoochie- Sarah Vaughan
TTITLE2=If I Could Be With You- Benny Goodman
TTITLE3=All I Desire- Lena Horne
TTITLE4=I Got It Bad And That Ain't Good- Ella Fitzgerald
TTITLE5=Just Squeeze Me- Duke Ellington With Ray Nance Vocal
TTITLE6=Come Rain Or Come Shine- Dinah Washington
TTITLE7=My Funny Valentine- Stan Getz
TTITLE8=Sweethearts On Parade- Louis Armstrong
TTITLE9=Isn't It Romantic- Chet Baker
TTITLE10=Let's Fall In Love- Louis Prima
TTITLE11=I've Got My Love To Keep Me Warm- Kay Starr
EXTD=YEAR: 2004
EXTT0=
EXTT1=
EXTT2=
EXTT3=
EXTT4=
EXTT5=
EXTT6=
EXTT7=
EXTT8=
EXTT9=
EXTT10=
EXTT11=
PLAYORDER=
